<svg width="19" height="20" viewBox="0 0 19 20" fill="none" xmlns="http://www.w3.org/2000/svg">
<path fill-rule="evenodd" clip-rule="evenodd" d="M14.2822 1C14.2822 0.585786 13.9464 0.25 13.5322 0.25C13.118 0.25 12.7822 0.585786 12.7822 1V2.25H6.28223V1C6.28223 0.585786 5.94644 0.25 5.53223 0.25C5.11801 0.25 4.78223 0.585786 4.78223 1V2.25H3.53223C2.01344 2.25 0.782227 3.48122 0.782227 5V9V17C0.782227 18.5188 2.01344 19.75 3.53223 19.75H15.5322C17.051 19.75 18.2822 18.5188 18.2822 17V9V5C18.2822 3.48122 17.051 2.25 15.5322 2.25H14.2822V1ZM16.7822 8.25V5C16.7822 4.30964 16.2226 3.75 15.5322 3.75H14.2822V5C14.2822 5.41421 13.9464 5.75 13.5322 5.75C13.118 5.75 12.7822 5.41421 12.7822 5V3.75H6.28223V5C6.28223 5.41421 5.94644 5.75 5.53223 5.75C5.11801 5.75 4.78223 5.41421 4.78223 5V3.75H3.53223C2.84187 3.75 2.28223 4.30964 2.28223 5V8.25H16.7822ZM2.28223 9.75H16.7822V17C16.7822 17.6904 16.2226 18.25 15.5322 18.25H3.53223C2.84187 18.25 2.28223 17.6904 2.28223 17V9.75Z" fill="#5F6980"/>
</svg>
