<svg width="1044" height="242" viewBox="0 0 1044 242" fill="none" xmlns="http://www.w3.org/2000/svg">
<path d="M1 136.467C29.2692 131.132 204.573 147.139 239.285 126.576C282.674 100.872 317.03 18.3263 356.129 64.69C398.053 114.404 468.94 -41.8767 527.044 14.4136C553.295 39.8459 609.837 118.038 665.654 118.038C711.016 118.038 710.952 44.4106 801.677 44.4106C892.401 44.4106 884.246 136.467 1044 136.467" stroke="#20C997" stroke-width="3"/>
<path d="M239.285 126.576C204.573 147.139 29.2692 131.132 1 136.467V242H1044V136.467C884.246 136.467 892.401 44.4106 801.677 44.4106C710.952 44.4106 711.016 118.038 665.654 118.038C609.837 118.038 553.295 39.8459 527.044 14.4136C468.94 -41.8767 398.053 114.404 356.129 64.69C317.03 18.3263 282.674 100.872 239.285 126.576Z" fill="url(#paint0_linear_1_296)"/>
<path d="M127.483 117.52C93.2354 133.621 28.8912 146.001 1 150.178V242H1044V93.9769C886.382 93.9769 884.437 190.43 794.925 190.43C705.414 190.43 701.522 86.5901 656.767 86.5901C612.011 86.5901 623.687 165.367 520.554 161.95C417.422 158.532 366.828 124.735 304.56 93.9769C242.626 63.3839 171.068 97.0283 128.177 117.194L127.483 117.52Z" fill="url(#paint1_linear_1_296)"/>
<path d="M1 150.178C28.8912 146.001 93.2354 133.621 127.483 117.52C170.293 97.3945 242.291 63.2183 304.56 93.9769C366.828 124.735 417.422 158.532 520.554 161.95C623.687 165.367 612.011 87.0819 656.767 87.0819C701.522 87.0819 705.414 190.43 794.925 190.43C884.437 190.43 886.382 93.9769 1044 93.9769" stroke="#679CF6" stroke-width="3"/>
<defs>
<linearGradient id="paint0_linear_1_296" x1="522.5" y1="2" x2="522.5" y2="242" gradientUnits="userSpaceOnUse">
<stop stop-color="#20C997" stop-opacity="0.13"/>
<stop offset="1" stop-color="#20C997" stop-opacity="0"/>
</linearGradient>
<linearGradient id="paint1_linear_1_296" x1="522.5" y1="81.6724" x2="522.5" y2="242" gradientUnits="userSpaceOnUse">
<stop stop-color="#4285F4" stop-opacity="0.25"/>
<stop offset="1" stop-color="#4285F4" stop-opacity="0"/>
</linearGradient>
</defs>
</svg>
