<svg width="18" height="16" viewBox="0 0 18 16" fill="none" xmlns="http://www.w3.org/2000/svg">
<path fill-rule="evenodd" clip-rule="evenodd" d="M3.14063 0.665344C2.53284 0.665344 1.94995 0.906787 1.52017 1.33656C1.0904 1.76633 0.848961 2.34922 0.848961 2.95701V12.957C0.848961 13.5648 1.0904 14.1477 1.52017 14.5775C1.94994 15.0072 2.53284 15.2487 3.14063 15.2487H8.97396C9.58175 15.2487 10.1646 15.0072 10.5944 14.5775C11.0242 14.1477 11.2656 13.5648 11.2656 12.957V11.2903C11.2656 10.9452 10.9858 10.6653 10.6406 10.6653C10.2954 10.6653 10.0156 10.9452 10.0156 11.2903V12.957C10.0156 13.2333 9.90588 13.4982 9.71053 13.6936C9.51518 13.8889 9.25023 13.9987 8.97396 13.9987H3.14063C2.86436 13.9987 2.59941 13.8889 2.40406 13.6936C2.20871 13.4982 2.09896 13.2333 2.09896 12.957V2.95701C2.09896 2.68074 2.20871 2.41579 2.40406 2.22044C2.59941 2.02509 2.86436 1.91534 3.14063 1.91534H8.97396C9.25023 1.91534 9.51518 2.02509 9.71053 2.22044C9.90588 2.41579 10.0156 2.68074 10.0156 2.95701V4.62368C10.0156 4.96886 10.2954 5.24868 10.6406 5.24868C10.9858 5.24868 11.2656 4.96886 11.2656 4.62368V2.95701C11.2656 2.34922 11.0242 1.76633 10.5944 1.33656C10.1646 0.906787 9.58175 0.665344 8.97396 0.665344H3.14063ZM14.4159 5.01507C14.1718 4.77099 13.7761 4.77099 13.532 5.01507C13.2879 5.25915 13.2879 5.65487 13.532 5.89895L14.9651 7.33201H4.80729C4.46212 7.33201 4.18229 7.61183 4.18229 7.95701C4.18229 8.30219 4.46212 8.58201 4.80729 8.58201H14.9651L13.532 10.0151C13.2879 10.2591 13.2879 10.6549 13.532 10.899C13.7761 11.143 14.1718 11.143 14.4159 10.899L16.9126 8.40223C16.9246 8.39039 16.9362 8.37805 16.9473 8.36522C17.03 8.26951 17.0789 8.15466 17.0939 8.03632C17.099 7.99645 17.1002 7.95638 17.0977 7.91666C17.0883 7.77041 17.0277 7.62684 16.9159 7.51507L14.4159 5.01507Z" fill="#5F6980"/>
</svg>
