<svg width="17" height="14" viewBox="0 0 17 14" fill="none" xmlns="http://www.w3.org/2000/svg">
<path fill-rule="evenodd" clip-rule="evenodd" d="M1.39934 2.44301C1.52954 2.01621 1.92643 1.70572 2.39583 1.70572H14.0625C14.5319 1.70572 14.9288 2.0162 15.059 2.44301L8.22917 6.99623L1.39934 2.44301ZM0.104194 2.73594C0.104078 2.74261 0.104069 2.74927 0.104166 2.75593V11.0807C0.104166 12.3464 1.13018 13.3724 2.39583 13.3724H14.0625C15.3282 13.3724 16.3542 12.3464 16.3542 11.0807V2.75586M15.1042 3.91521V11.0807C15.1042 11.656 14.6378 12.1224 14.0625 12.1224H2.39583C1.82054 12.1224 1.35417 11.656 1.35417 11.0807V3.91521L7.88248 8.26742C8.09241 8.40737 8.36592 8.40737 8.57585 8.26742L15.1042 3.91521ZM16.3541 2.73603C16.348 1.4756 15.3244 0.455719 14.0625 0.455719H2.39583C1.134 0.455719 0.110357 1.47555 0.104194 2.73594" fill="#5F6980"/>
</svg>
