<svg width="15" height="15" viewBox="0 0 15 15" fill="none" xmlns="http://www.w3.org/2000/svg">
<path fill-rule="evenodd" clip-rule="evenodd" d="M2.13803 6.50991C2.13803 4.14303 4.05677 2.22429 6.42366 2.22429C8.79055 2.22429 10.7093 4.14303 10.7093 6.50991C10.7093 8.8768 8.79055 10.7955 6.42366 10.7955C4.05677 10.7955 2.13803 8.8768 2.13803 6.50991ZM6.42366 0.974285C3.36642 0.974285 0.888031 3.45267 0.888031 6.50991C0.888031 9.56716 3.36642 12.0455 6.42366 12.0455C7.7271 12.0455 8.92532 11.595 9.87112 10.8413L13.6982 14.6683C13.9422 14.9124 14.338 14.9124 14.5821 14.6683C14.8261 14.4242 14.8261 14.0285 14.5821 13.7844L10.755 9.95737C11.5088 9.01158 11.9593 7.81335 11.9593 6.50991C11.9593 3.45267 9.4809 0.974285 6.42366 0.974285Z" fill="#282828"/>
</svg>
