<svg width="19" height="18" viewBox="0 0 19 18" fill="none" xmlns="http://www.w3.org/2000/svg">
<path fill-rule="evenodd" clip-rule="evenodd" d="M2.02246 1.948C2.02246 1.80993 2.13439 1.698 2.27246 1.698H6.27246C6.41053 1.698 6.52246 1.80993 6.52246 1.948V5.948C6.52246 6.08607 6.41053 6.198 6.27246 6.198H2.27246C2.13439 6.198 2.02246 6.08607 2.02246 5.948V1.948ZM2.27246 0.197998C1.30596 0.197998 0.522461 0.9815 0.522461 1.948V5.948C0.522461 6.9145 1.30596 7.698 2.27246 7.698H6.27246C7.23896 7.698 8.02246 6.9145 8.02246 5.948V1.948C8.02246 0.9815 7.23896 0.197998 6.27246 0.197998H2.27246ZM12.0225 1.948C12.0225 1.80993 12.1344 1.698 12.2725 1.698H16.2725C16.4105 1.698 16.5225 1.80993 16.5225 1.948V5.948C16.5225 6.08607 16.4105 6.198 16.2725 6.198H12.2725C12.1344 6.198 12.0225 6.08607 12.0225 5.948V1.948ZM12.2725 0.197998C11.306 0.197998 10.5225 0.9815 10.5225 1.948V5.948C10.5225 6.9145 11.306 7.698 12.2725 7.698H16.2725C17.239 7.698 18.0225 6.9145 18.0225 5.948V1.948C18.0225 0.9815 17.239 0.197998 16.2725 0.197998H12.2725ZM2.27246 11.698C2.13439 11.698 2.02246 11.8099 2.02246 11.948V15.948C2.02246 16.0861 2.13439 16.198 2.27246 16.198H6.27246C6.41053 16.198 6.52246 16.0861 6.52246 15.948V11.948C6.52246 11.8099 6.41053 11.698 6.27246 11.698H2.27246ZM0.522461 11.948C0.522461 10.9815 1.30596 10.198 2.27246 10.198H6.27246C7.23896 10.198 8.02246 10.9815 8.02246 11.948V15.948C8.02246 16.9145 7.23896 17.698 6.27246 17.698H2.27246C1.30596 17.698 0.522461 16.9145 0.522461 15.948V11.948ZM12.0225 11.948C12.0225 11.8099 12.1344 11.698 12.2725 11.698H16.2725C16.4105 11.698 16.5225 11.8099 16.5225 11.948V15.948C16.5225 16.0861 16.4105 16.198 16.2725 16.198H12.2725C12.1344 16.198 12.0225 16.0861 12.0225 15.948V11.948ZM12.2725 10.198C11.306 10.198 10.5225 10.9815 10.5225 11.948V15.948C10.5225 16.9145 11.306 17.698 12.2725 17.698H16.2725C17.239 17.698 18.0225 16.9145 18.0225 15.948V11.948C18.0225 10.9815 17.239 10.198 16.2725 10.198H12.2725Z" fill="#5F6980"/>
</svg>
