<svg width="16" height="16" viewBox="0 0 16 16" fill="none" xmlns="http://www.w3.org/2000/svg">
<path fill-rule="evenodd" clip-rule="evenodd" d="M2.18489 2.12371C2.18489 2.00865 2.27817 1.91537 2.39323 1.91537H5.72656C5.84162 1.91537 5.93489 2.00865 5.93489 2.12371V5.45704C5.93489 5.5721 5.84162 5.66537 5.72656 5.66537H2.39323C2.27817 5.66537 2.18489 5.5721 2.18489 5.45704V2.12371ZM2.39323 0.665375C1.58781 0.665375 0.934895 1.31829 0.934895 2.12371V5.45704C0.934895 6.26246 1.58781 6.91537 2.39323 6.91537H5.72656C6.53198 6.91537 7.18489 6.26246 7.18489 5.45704V2.12371C7.18489 1.31829 6.53198 0.665375 5.72656 0.665375H2.39323ZM10.5182 2.12371C10.5182 2.00865 10.6115 1.91537 10.7266 1.91537H14.0599C14.175 1.91537 14.2682 2.00865 14.2682 2.12371V5.45704C14.2682 5.5721 14.175 5.66537 14.0599 5.66537H10.7266C10.6115 5.66537 10.5182 5.5721 10.5182 5.45704V2.12371ZM10.7266 0.665375C9.92115 0.665375 9.26823 1.31829 9.26823 2.12371V5.45704C9.26823 6.26246 9.92115 6.91537 10.7266 6.91537H14.0599C14.8653 6.91537 15.5182 6.26246 15.5182 5.45704V2.12371C15.5182 1.31829 14.8653 0.665375 14.0599 0.665375H10.7266ZM2.39323 10.2487C2.27817 10.2487 2.18489 10.342 2.18489 10.457V13.7904C2.18489 13.9054 2.27817 13.9987 2.39323 13.9987H5.72656C5.84162 13.9987 5.93489 13.9054 5.93489 13.7904V10.457C5.93489 10.342 5.84162 10.2487 5.72656 10.2487H2.39323ZM0.934895 10.457C0.934895 9.65163 1.58781 8.99871 2.39323 8.99871H5.72656C6.53198 8.99871 7.18489 9.65163 7.18489 10.457V13.7904C7.18489 14.5958 6.53198 15.2487 5.72656 15.2487H2.39323C1.58781 15.2487 0.934895 14.5958 0.934895 13.7904V10.457ZM10.5182 10.457C10.5182 10.342 10.6115 10.2487 10.7266 10.2487H14.0599C14.175 10.2487 14.2682 10.342 14.2682 10.457V13.7904C14.2682 13.9054 14.175 13.9987 14.0599 13.9987H10.7266C10.6115 13.9987 10.5182 13.9054 10.5182 13.7904V10.457ZM10.7266 8.99871C9.92115 8.99871 9.26823 9.65163 9.26823 10.457V13.7904C9.26823 14.5958 9.92115 15.2487 10.7266 15.2487H14.0599C14.8653 15.2487 15.5182 14.5958 15.5182 13.7904V10.457C15.5182 9.65163 14.8653 8.99871 14.0599 8.99871H10.7266Z" fill="#5F6980"/>
</svg>
