<svg width="18" height="18" viewBox="0 0 18 18" fill="none" xmlns="http://www.w3.org/2000/svg">
<path d="M13.1033 8.27667C12.9603 7.46508 12.5798 6.71415 12.0099 6.11882C11.4401 5.52349 10.7065 5.1105 9.90197 4.93209C9.09742 4.75368 8.25804 4.81786 7.48996 5.1165C6.72188 5.41515 6.05961 5.93485 5.5869 6.60989C5.11419 7.28492 4.85226 8.08498 4.83425 8.90887C4.81624 9.73277 5.04295 10.5435 5.48571 11.2386C5.92847 11.9336 6.56739 12.4818 7.32168 12.8137C8.07597 13.1456 8.91175 13.2464 9.72333 13.1033M1.5 9C1.5 10.4834 1.93987 11.9334 2.76398 13.1668C3.58809 14.4001 4.75943 15.3614 6.12987 15.9291C7.50032 16.4968 9.00832 16.6453 10.4632 16.3559C11.918 16.0665 13.2544 15.3522 14.3033 14.3033C15.3522 13.2544 16.0665 11.918 16.3559 10.4632C16.6453 9.00832 16.4968 7.50032 15.9291 6.12987C15.3614 4.75943 14.4001 3.58809 13.1668 2.76398C11.9334 1.93987 10.4834 1.5 9 1.5M8.16667 9C8.16667 9.22101 8.25446 9.43297 8.41074 9.58926C8.56702 9.74554 8.77899 9.83333 9 9.83333C9.22101 9.83333 9.43297 9.74554 9.58926 9.58926C9.74554 9.43297 9.83333 9.22101 9.83333 9C9.83333 8.77899 9.74554 8.56702 9.58926 8.41074C9.43297 8.25446 9.22101 8.16667 9 8.16667C8.77899 8.16667 8.56702 8.25446 8.41074 8.41074C8.25446 8.56702 8.16667 8.77899 8.16667 9Z" stroke="#282828" stroke-width="1.25" stroke-linecap="round" stroke-linejoin="round"/>
</svg>
