<svg width="64" height="64" viewBox="0 0 64 64" fill="none" xmlns="http://www.w3.org/2000/svg">
<g filter="url(#filter0_d_1_364)">
<rect x="10" y="9" width="44" height="44" rx="9.42857" fill="white"/>
<path d="M27.5313 44.75C29.9981 44.75 32.0001 42.748 32.0001 40.2812V35.8125H27.5313C25.0646 35.8125 23.0626 37.8145 23.0626 40.2812C23.0626 42.748 25.0646 44.75 27.5313 44.75Z" fill="#0ACF83"/>
<path d="M23.0626 31.3438C23.0626 28.877 25.0646 26.875 27.5313 26.875H32.0001V35.8125H27.5313C25.0646 35.8125 23.0626 33.8105 23.0626 31.3438Z" fill="#A259FF"/>
<path d="M23.0626 22.4062C23.0626 19.9395 25.0646 17.9375 27.5313 17.9375H32.0001V26.875H27.5313C25.0646 26.875 23.0626 24.873 23.0626 22.4062Z" fill="#F24E1E"/>
<path d="M32.0001 17.9375H36.4688C38.9356 17.9375 40.9376 19.9395 40.9376 22.4062C40.9376 24.873 38.9356 26.875 36.4688 26.875H32.0001V17.9375Z" fill="#FF7262"/>
<path d="M40.9376 31.3438C40.9376 33.8105 38.9356 35.8125 36.4688 35.8125C34.0021 35.8125 32.0001 33.8105 32.0001 31.3438C32.0001 28.877 34.0021 26.875 36.4688 26.875C38.9356 26.875 40.9376 28.877 40.9376 31.3438Z" fill="#1ABCFE"/>
<rect x="10" y="9" width="44" height="44" rx="9.42857" stroke="#F2F4F7"/>
</g>
<defs>
<filter id="filter0_d_1_364" x="0" y="0" width="64" height="64" filterUnits="userSpaceOnUse" color-interpolation-filters="sRGB">
<feFlood flood-opacity="0" result="BackgroundImageFix"/>
<feColorMatrix in="SourceAlpha" type="matrix" values="0 0 0 0 0 0 0 0 0 0 0 0 0 0 0 0 0 0 127 0" result="hardAlpha"/>
<feOffset dy="1"/>
<feGaussianBlur stdDeviation="5"/>
<feColorMatrix type="matrix" values="0 0 0 0 0 0 0 0 0 0 0 0 0 0 0 0 0 0 0.06 0"/>
<feBlend mode="normal" in2="BackgroundImageFix" result="effect1_dropShadow_1_364"/>
<feBlend mode="normal" in="SourceGraphic" in2="effect1_dropShadow_1_364" result="shape"/>
</filter>
</defs>
</svg>
