<svg width="18" height="18" viewBox="0 0 18 18" fill="none" xmlns="http://www.w3.org/2000/svg">
<path d="M11.5 11.5L14.2917 14.2917M6.5 11.5L3.70833 14.2917M3.70833 3.70833L6.5 6.5M14.2917 3.70833L11.5 6.5M5.66667 9C5.66667 9.88405 6.01786 10.7319 6.64298 11.357C7.2681 11.9821 8.11594 12.3333 9 12.3333C9.88405 12.3333 10.7319 11.9821 11.357 11.357C11.9821 10.7319 12.3333 9.88405 12.3333 9C12.3333 8.11594 11.9821 7.2681 11.357 6.64298C10.7319 6.01786 9.88405 5.66667 9 5.66667C8.11594 5.66667 7.2681 6.01786 6.64298 6.64298C6.01786 7.2681 5.66667 8.11594 5.66667 9ZM1.5 9C1.5 9.98491 1.69399 10.9602 2.0709 11.8701C2.44781 12.7801 3.00026 13.6069 3.6967 14.3033C4.39314 14.9997 5.21993 15.5522 6.12987 15.9291C7.03982 16.306 8.01509 16.5 9 16.5C9.98491 16.5 10.9602 16.306 11.8701 15.9291C12.7801 15.5522 13.6069 14.9997 14.3033 14.3033C14.9997 13.6069 15.5522 12.7801 15.9291 11.8701C16.306 10.9602 16.5 9.98491 16.5 9C16.5 8.01509 16.306 7.03982 15.9291 6.12987C15.5522 5.21993 14.9997 4.39314 14.3033 3.6967C13.6069 3.00026 12.7801 2.44781 11.8701 2.0709C10.9602 1.69399 9.98491 1.5 9 1.5C8.01509 1.5 7.03982 1.69399 6.12987 2.0709C5.21993 2.44781 4.39314 3.00026 3.6967 3.6967C3.00026 4.39314 2.44781 5.21993 2.0709 6.12987C1.69399 7.03982 1.5 8.01509 1.5 9Z" stroke="#282828" stroke-width="1.25" stroke-linecap="round" stroke-linejoin="round"/>
</svg>
