<svg width="64" height="64" viewBox="0 0 64 64" fill="none" xmlns="http://www.w3.org/2000/svg">
<g filter="url(#filter0_d_1_390)">
<rect x="10" y="9" width="44" height="44" rx="9.42857" fill="white"/>
<path d="M21.1461 34.538C21.1461 35.5656 21.3707 36.3544 21.6645 36.8317C22.0497 37.4568 22.624 37.7222 23.2096 37.7222C23.9648 37.7222 24.6557 37.5341 25.9872 35.6857C27.0541 34.2043 28.3108 32.1249 29.1565 30.8213L30.5887 28.6127C31.5835 27.0788 32.7351 25.3738 34.0554 24.218C35.1336 23.2747 36.296 22.7506 37.4662 22.7506C39.4308 22.7506 41.3022 23.8933 42.7343 26.0364C44.3018 28.3834 45.0626 31.3398 45.0626 34.3905C45.0626 36.2043 44.7064 37.5369 44.1003 38.5897C43.5148 39.6078 42.3735 40.6252 40.4536 40.6252V37.7217C42.0975 37.7217 42.5077 36.2056 42.5077 34.4706C42.5077 31.9981 41.9333 29.2543 40.668 27.2937C39.7702 25.903 38.6066 25.0533 37.3263 25.0533C35.9417 25.0533 34.8274 26.1017 33.5751 27.9703C32.9094 28.9632 32.226 30.1732 31.4585 31.5386L30.6137 33.0407C28.9169 36.0611 28.487 36.7487 27.6385 37.8836C26.1514 39.8711 24.8814 40.6247 23.2096 40.6247C21.2263 40.6247 19.9722 39.7627 19.1955 38.4638C18.5615 37.4054 18.2501 36.0166 18.2501 34.4342L21.1461 34.538Z" fill="#0081FB"/>
<path d="M20.5336 26.2407C21.8613 24.1865 23.7775 22.75 25.9752 22.75C27.2479 22.75 28.5134 23.1281 29.8344 24.2109C31.2796 25.3945 32.82 27.3446 34.7418 30.5572L35.4308 31.7098C37.0942 34.4912 38.0406 35.9221 38.5945 36.5968C39.3068 37.4633 39.8056 37.7217 40.4537 37.7217C42.0976 37.7217 42.5077 36.2056 42.5077 34.4705L45.0626 34.39C45.0626 36.2038 44.7065 37.5364 44.1003 38.5892C43.5148 39.6073 42.3735 40.6247 40.4537 40.6247C39.2601 40.6247 38.2028 40.3645 37.0336 39.2573C36.1351 38.4076 35.0839 36.8981 34.2754 35.5412L31.8707 31.5096C30.6643 29.4863 29.5571 27.9778 28.917 27.2946C28.2278 26.5598 27.342 25.6727 25.9285 25.6727C24.7845 25.6727 23.8129 26.4784 22.9998 27.711L20.5336 26.2407Z" fill="url(#paint0_linear_1_390)"/>
<path d="M25.9284 25.6727C24.7844 25.6727 23.8128 26.4784 22.9998 27.711C21.8501 29.4525 21.1467 32.0466 21.1467 34.5378C21.1467 35.5654 21.3713 36.3542 21.6651 36.8315L19.1955 38.4636C18.5615 37.4053 18.2501 36.0164 18.2501 34.434C18.2501 31.5563 19.037 28.5569 20.5336 26.2407C21.8613 24.1865 23.7775 22.75 25.9752 22.75L25.9284 25.6727Z" fill="url(#paint1_linear_1_390)"/>
<rect x="10" y="9" width="44" height="44" rx="9.42857" stroke="#F2F4F7"/>
</g>
<defs>
<filter id="filter0_d_1_390" x="0" y="0" width="64" height="64" filterUnits="userSpaceOnUse" color-interpolation-filters="sRGB">
<feFlood flood-opacity="0" result="BackgroundImageFix"/>
<feColorMatrix in="SourceAlpha" type="matrix" values="0 0 0 0 0 0 0 0 0 0 0 0 0 0 0 0 0 0 127 0" result="hardAlpha"/>
<feOffset dy="1"/>
<feGaussianBlur stdDeviation="5"/>
<feColorMatrix type="matrix" values="0 0 0 0 0 0 0 0 0 0 0 0 0 0 0 0 0 0 0.06 0"/>
<feBlend mode="normal" in2="BackgroundImageFix" result="effect1_dropShadow_1_390"/>
<feBlend mode="normal" in="SourceGraphic" in2="effect1_dropShadow_1_390" result="shape"/>
</filter>
<linearGradient id="paint0_linear_1_390" x1="23.4203" y1="37.9508" x2="41.8038" y2="39.7056" gradientUnits="userSpaceOnUse">
<stop stop-color="#0064E1"/>
<stop offset="0.4" stop-color="#0064E1"/>
<stop offset="0.83" stop-color="#0073EE"/>
<stop offset="1" stop-color="#0082FB"/>
</linearGradient>
<linearGradient id="paint1_linear_1_390" x1="23.7918" y1="35.7582" x2="23.7918" y2="28.9266" gradientUnits="userSpaceOnUse">
<stop stop-color="#0082FB"/>
<stop offset="1" stop-color="#0064E0"/>
</linearGradient>
</defs>
</svg>
