<svg width="18" height="14" viewBox="0 0 18 14" fill="none" xmlns="http://www.w3.org/2000/svg">
<path fill-rule="evenodd" clip-rule="evenodd" d="M8.70964 3.45799C8.70964 2.53751 9.45583 1.79132 10.3763 1.79132C11.2968 1.79132 12.043 2.53751 12.043 3.45799C12.043 4.37846 11.2968 5.12465 10.3763 5.12465C9.45583 5.12465 8.70964 4.37846 8.70964 3.45799ZM7.52676 4.08299H1.41797C1.07279 4.08299 0.792969 3.80317 0.792969 3.45799C0.792969 3.11281 1.07279 2.83299 1.41797 2.83299H7.52676C7.81287 1.52249 8.98 0.541321 10.3763 0.541321C11.7726 0.541321 12.9397 1.52249 13.2258 2.83299H16.418C16.7631 2.83299 17.043 3.11281 17.043 3.45799C17.043 3.80317 16.7631 4.08299 16.418 4.08299H13.2258C12.9397 5.39348 11.7726 6.37465 10.3763 6.37465C8.98 6.37465 7.81287 5.39348 7.52676 4.08299ZM3.70964 10.1247C3.70964 9.20418 4.45583 8.45799 5.3763 8.45799C6.29678 8.45799 7.04297 9.20418 7.04297 10.1247C7.04297 11.0451 6.29678 11.7913 5.3763 11.7913C4.45583 11.7913 3.70964 11.0451 3.70964 10.1247ZM5.3763 13.0413C3.98 13.0413 2.81287 12.0601 2.52676 10.7497H1.41797C1.07279 10.7497 0.792969 10.4698 0.792969 10.1247C0.792969 9.77948 1.07279 9.49965 1.41797 9.49965H2.52676C2.81287 8.18916 3.98 7.20799 5.3763 7.20799C6.7726 7.20799 7.93973 8.18916 8.22585 9.49965H16.418C16.7631 9.49965 17.043 9.77948 17.043 10.1247C17.043 10.4698 16.7631 10.7497 16.418 10.7497H8.22585C7.93973 12.0601 6.7726 13.0413 5.3763 13.0413Z" fill="#5F6980"/>
</svg>
