<svg width="4" height="18" viewBox="0 0 4 18" fill="none" xmlns="http://www.w3.org/2000/svg">
<path d="M1.00122 8.99969C1.00122 9.26491 1.10658 9.51926 1.29411 9.7068C1.48165 9.89434 1.736 9.99969 2.00122 9.99969C2.26644 9.99969 2.52079 9.89434 2.70833 9.7068C2.89586 9.51926 3.00122 9.26491 3.00122 8.99969C3.00122 8.73448 2.89586 8.48012 2.70833 8.29259C2.52079 8.10505 2.26644 7.99969 2.00122 7.99969C1.736 7.99969 1.48165 8.10505 1.29411 8.29259C1.10658 8.48012 1.00122 8.73448 1.00122 8.99969ZM1.00122 15.9997C1.00122 16.2649 1.10658 16.5193 1.29411 16.7068C1.48165 16.8943 1.736 16.9997 2.00122 16.9997C2.26644 16.9997 2.52079 16.8943 2.70833 16.7068C2.89586 16.5193 3.00122 16.2649 3.00122 15.9997C3.00122 15.7345 2.89586 15.4801 2.70833 15.2926C2.52079 15.1051 2.26644 14.9997 2.00122 14.9997C1.736 14.9997 1.48165 15.1051 1.29411 15.2926C1.10658 15.4801 1.00122 15.7345 1.00122 15.9997ZM1.00122 1.99969C1.00122 2.26491 1.10658 2.51926 1.29411 2.7068C1.48165 2.89434 1.736 2.99969 2.00122 2.99969C2.26644 2.99969 2.52079 2.89434 2.70833 2.7068C2.89586 2.51926 3.00122 2.26491 3.00122 1.99969C3.00122 1.73448 2.89586 1.48012 2.70833 1.29259C2.52079 1.10505 2.26644 0.999695 2.00122 0.999695C1.736 0.999695 1.48165 1.10505 1.29411 1.29259C1.10658 1.48012 1.00122 1.73448 1.00122 1.99969Z" stroke="#9D9FA2" stroke-width="1.38462" stroke-linecap="round" stroke-linejoin="round"/>
</svg>
